# xmcd
#
# Track frame offsets: 
#        150
#        12615
#        24277
#        36097
#        51627
#        91745
#        105545
#        120215
#        151175
#        162822
#        176367
#        189750
#        209510
#        222552
#        233597
#        259025
#        274385
#        307385
#        320315
#        338420
#
# Disc length: 4782 seconds
#
# Revision: 7
# Processed by: cddbd v1.5.2PL0 Copyright (c) Steve Scherf et al.
# Submitted via: ExactAudioCopyFreeDBPlugin 1.0
#
DISCID=0a12ac14
DTITLE=Various Artist - Martin Scorsese Presents The Blues:  Feel Lik
DTITLE=e Going Home (A Martin Scorses Production)
DYEAR=2003
DGENRE=Blues
TTITLE0=Robert Johnson - Traveling Riverside Blues
TTITLE1=Johnny Shines - Dynaflow Blues
TTITLE2=Robert Johnson - Hellhound On My Trail
TTITLE3=Muddy Waters - Country Blues
TTITLE4=Taj Mahal - Celebrated Walkin' Blues
TTITLE5=Muddy Waters With The Son Simms Four - Rosalie
TTITLE6=Son House - My Black Mama (Part 2)
TTITLE7=Son House - Government Fleet Blues
TTITLE8=Muddy Waters - Gypsy Woman
TTITLE9=Charley Patton - High Water Everywhere (Part 1)
TTITLE10=Lead Belly - C.C. Rider
TTITLE11=Willie King and The Liberators - Terrorized
TTITLE12=Napoleon Strickland and The Como Drum Band (With Otha Turner) /
TTITLE12=Oh Baby
TTITLE13=Otha Turner and Corey Harris - Lay My Burden Down
TTITLE14=Ali Farka Touré - Mali Dje
TTITLE15=John Lee Hooker - Tupelo Blues
TTITLE16=Ali Farka Touré - Amandrai
TTITLE17=John Lee Hooker - Down Child
TTITLE18=Salif Keita - Aanamin (It's Been So Long)
TTITLE19=Otha Turner and The Rising Star Fife and Drum Band - My Babe
EXTD=
EXTT0=
EXTT1=
EXTT2=
EXTT3=
EXTT4=
EXTT5=
EXTT6=
EXTT7=
EXTT8=
EXTT9=
EXTT10=
EXTT11=
EXTT12=
EXTT13=
EXTT14=
EXTT15=
EXTT16=
EXTT17=
EXTT18=
EXTT19=
PLAYORDER=
